PathFileType	3	(X/Y/Z)	D:\VICON_DB\Goncalves\Pilot01\09-03-2026\static_01.trc
DataRate	CameraRate	NumFrames	NumMarkers	Units	OrigDataRate	OrigDataStartFrame	OrigNumFrames
200.0	200.0	10	34	mm	200.0	241	321	
Frame#	Time	LASI			RASI			LPSI			RPSI			LTHI			LTHAP			LTHAD			LKNE			LKNM			LTIB			LTIAP			LTIAD			LANK			LMED			LHEE			LTOE			LFMH			LSMH			LVMH			RTHI			RTHAP			RTHAD			RKNE			RKNM			RTIB			RTIAP			RTIAD			RANK			RMED			RHEE			RTOE			RFMH			RSMH			RVMH			
		X1	Y1	Z1	X2	Y2	Z2	X3	Y3	Z3	X4	Y4	Z4	X5	Y5	Z5	X6	Y6	Z6	X7	Y7	Z7	X8	Y8	Z8	X9	Y9	Z9	X10	Y10	Z10	X11	Y11	Z11	X12	Y12	Z12	X13	Y13	Z13	X14	Y14	Z14	X15	Y15	Z15	X16	Y16	Z16	X17	Y17	Z17	X18	Y18	Z18	X19	Y19	Z19	X20	Y20	Z20	X21	Y21	Z21	X22	Y22	Z22	X23	Y23	Z23	X24	Y24	Z24	X25	Y25	Z25	X26	Y26	Z26	X27	Y27	Z27	X28	Y28	Z28	X29	Y29	Z29	X30	Y30	Z30	X31	Y31	Z31	X32	Y32	Z32	X33	Y33	Z33	X34	Y34	Z34	
241	1.2	115.54028	903.33411	-1062.6631	110.45339	903.84558	-1327.5422	300.57001	958.54602	-1175.79	305.33142	954.65979	-1228.9674	123.23082	693.6048	-1030.6583	140.48073	767.43964	-1017.1243	167.60802	629.67719	-1006.8467	220.75522	474.71298	-1023.6629	197.23096	464.80313	-1151.7991	258.36871	281.61389	-1004.1935	200.90517	357.14645	-1059.3943	216.40884	254.78569	-1032.0371	273.13422	70.17926	-1027.2496	239.52785	81.12867	-1107.7344	314.9296	61.908134	-1080.6134	191.07349	71.898666	-1047.2745	134.00745	44.941822	-1072.9169	133.70815	39.2551	-1032.7069	149.22443	25.58128	-992.78912	155.83401	625.93878	-1379.9459	118.91481	751.76495	-1355.9684	103.20258	659.99139	-1333.8663	204.7265	490.5148	-1363.6968	203.29227	433.87363	-1243.6305	225.44005	296.23373	-1382.7173	185.94113	346.02203	-1327.587	191.91316	264.6879	-1330.5425	269.03024	62.221931	-1355.7288	233.65172	89.705154	-1275.8829	305.01816	58.07753	-1313.936	176.6077	69.016144	-1340.2233	126.11944	49.262413	-1315.147	123.84875	40.530464	-1351.2919	139.79733	20.6136	-1388.9093
242	1.205	115.45928	903.32397	-1062.6868	110.38048	903.84003	-1327.5824	300.84698	958.61005	-1175.5	305.26895	954.67279	-1228.9619	123.17261	693.60455	-1030.6748	140.59808	767.2381	-1017.283	167.56212	629.68555	-1006.8507	220.72849	474.71756	-1023.6747	197.22151	464.78687	-1151.7935	258.36136	281.62863	-1004.1926	200.8432	357.14972	-1059.36	216.38847	254.77951	-1032.0464	272.64191	70.370026	-1027.364	239.30679	81.11853	-1107.9293	314.91525	61.927151	-1080.6267	191.20166	71.788261	-1047.3441	134.02095	44.940163	-1072.9154	133.70178	39.25473	-1032.7167	149.22797	25.600922	-992.77832	155.8233	625.90753	-1379.9321	118.82397	751.74316	-1356.0026	103.15314	659.98383	-1333.884	204.72513	490.49515	-1363.6979	203.242	433.85199	-1243.6445	225.43654	296.22858	-1382.7195	185.91792	346.01947	-1327.5811	191.90367	264.69913	-1330.5436	269.03888	62.222157	-1355.7285	232.39925	90.235336	-1275.0117	305.01874	58.087959	-1313.9507	176.59752	69.020828	-1340.2395	126.08971	49.287106	-1315.1775	123.84042	40.522228	-1351.3051	139.8	20.608393	-1388.9105
243	1.21	115.39114	903.3172	-1062.694	110.19313	903.93408	-1327.7683	300.84601	958.55908	-1174.6	305.18515	954.68311	-1228.9464	123.1208	693.60236	-1030.6772	140.52219	767.23474	-1017.3006	167.50731	629.67743	-1006.8641	220.6877	474.72656	-1023.6655	197.20494	464.79227	-1151.8025	258.32034	281.63126	-1004.2063	200.82239	357.17795	-1059.3727	216.37169	254.78098	-1032.0427	273.1319	70.256187	-1027.278	239.31073	81.131264	-1107.9268	314.91245	61.925934	-1080.6387	191.09335	71.912643	-1047.3135	134.01837	44.937027	-1072.9213	133.69678	39.261311	-1032.7262	149.20775	25.6019	-992.78992	155.79355	625.91199	-1379.9142	119.01482	751.71161	-1355.766	103.1163	659.96191	-1333.8961	204.68407	490.52814	-1363.6923	203.28189	433.78311	-1243.644	225.43762	296.21445	-1382.7235	185.9099	346.01752	-1327.5869	191.90245	264.69907	-1330.5439	269.04224	62.220749	-1355.7255	233.67451	89.723282	-1275.8717	305.02054	58.091232	-1313.946	176.60114	69.029884	-1340.2146	126.1238	49.250595	-1315.1588	123.85119	40.521591	-1351.2985	139.72153	20.685713	-1388.9799
244	1.215	115.3256	903.29706	-1062.6897	110.25043	903.87769	-1327.6582	301.59003	958.78406	-1173.9102	305.13364	954.67932	-1228.9539	123.07413	693.59894	-1030.6843	140.29364	767.41577	-1017.1579	167.47018	629.66937	-1006.8647	220.64296	474.73248	-1023.6734	197.16307	464.77994	-1151.8163	258.2999	281.63821	-1004.2162	200.81865	357.1366	-1059.3593	216.34944	254.7887	-1032.0497	272.92538	70.366943	-1027.1959	239.30179	81.107208	-1107.9364	314.92731	61.931004	-1080.656	191.13849	71.830421	-1047.376	134.01428	44.937363	-1072.9142	133.71022	39.247341	-1032.7198	149.22278	25.60885	-992.78082	155.76443	625.8949	-1379.9023	118.80878	751.70374	-1355.9441	103.07819	659.95428	-1333.8882	204.6692	490.52151	-1363.7103	203.18123	433.83475	-1243.6357	225.43883	296.20273	-1382.7024	185.90077	346.00897	-1327.5884	191.88799	264.69397	-1330.5599	269.03894	62.204319	-1355.7164	233.66365	89.731087	-1275.8768	305.03168	58.087166	-1313.9598	176.60477	69.050423	-1340.2061	126.07349	49.261913	-1315.2101	123.84948	40.534096	-1351.2999	139.80943	20.596941	-1388.8998
245	1.22	115.25611	903.28278	-1062.7157	110.18708	903.87366	-1327.6821	301.65302	958.79498	-1173.6801	305.06073	954.6947	-1228.9458	123.02368	693.58136	-1030.6943	140.24638	767.40192	-1017.1544	167.41245	629.66119	-1006.8763	220.60651	474.72067	-1023.6901	197.13852	464.77496	-1151.8121	258.30341	281.65308	-1004.2112	200.78638	357.12732	-1059.3845	216.34477	254.77797	-1032.0547	272.77011	70.293167	-1027.3752	239.2926	81.117203	-1107.9374	314.92679	61.925751	-1080.6558	191.09526	71.814598	-1047.3099	133.99538	44.933262	-1072.9347	133.69743	39.239269	-1032.7345	149.2077	25.5968	-992.79626	155.71211	625.8844	-1379.9054	118.75244	751.6795	-1355.9536	103.01418	659.94189	-1333.9276	204.6282	490.49268	-1363.7297	203.10223	433.95197	-1243.599	225.67409	296.15451	-1382.4502	186.0042	345.81683	-1327.5975	191.88353	264.68683	-1330.5582	269.05161	62.210747	-1355.7218	233.65681	89.715363	-1275.88	305.01013	58.081734	-1313.9824	176.59476	69.026909	-1340.2155	126.11453	49.22823	-1315.157	123.85081	40.517628	-1351.2994	139.80986	20.592943	-1388.9053
246	1.225	115.189	903.2771	-1062.7103	110.11984	903.81097	-1327.6837	301.44302	958.74805	-1173.9202	305.01566	954.70502	-1228.9395	122.97874	693.58014	-1030.6959	140.19038	767.39203	-1017.1565	167.3586	629.64899	-1006.8856	220.56548	474.7244	-1023.6918	197.12534	464.76184	-1151.8062	258.27753	281.65042	-1004.2182	200.7399	357.14365	-1059.394	216.31656	254.76671	-1032.0579	272.72125	70.289154	-1027.4103	239.51263	81.116196	-1107.7461	314.93997	61.911312	-1080.6389	191.14908	71.814377	-1047.3217	134.0094	44.923347	-1072.9075	133.69701	39.229042	-1032.7466	149.19844	25.591694	-992.77777	155.67343	625.86957	-1379.9071	118.70891	751.66425	-1355.9652	102.96739	659.94135	-1333.9409	204.61472	490.47552	-1363.7201	203.06865	433.86746	-1243.6344	225.4805	296.1879	-1382.6349	185.99544	345.80365	-1327.601	191.882	264.6806	-1330.5634	269.0423	62.198494	-1355.7262	233.66403	89.719933	-1275.877	305.01077	58.066181	-1313.9838	176.58914	69.033417	-1340.2264	126.11285	49.257294	-1315.1705	123.8497	40.515099	-1351.3005	139.78853	20.618567	-1388.9252
247	1.23	115.13661	903.25787	-1062.7063	110.06467	903.85071	-1327.7086	301.258	958.77106	-1174.1101	304.95566	954.68115	-1228.9309	122.92221	693.55548	-1030.7085	140.12337	767.38525	-1017.181	167.30844	629.64233	-1006.8926	220.54057	474.71268	-1023.6963	197.07985	464.76193	-1151.8181	258.26569	281.64566	-1004.215	200.75909	357.15497	-1059.4347	216.30627	254.76384	-1032.0497	272.74243	70.275925	-1027.3827	239.51126	81.103447	-1107.7449	314.92911	61.915634	-1080.6345	191.15312	71.904007	-1047.2296	133.99109	44.918541	-1072.9302	133.68771	39.217426	-1032.7394	149.20554	25.570911	-992.79352	155.60924	625.87189	-1379.9022	118.65075	751.66187	-1355.9835	102.91767	659.92023	-1333.9438	204.56404	490.47964	-1363.7354	203.10039	433.79602	-1243.6278	225.44598	296.20251	-1382.6654	185.89427	345.94449	-1327.6016	191.85689	264.66364	-1330.5708	269.03491	62.188732	-1355.729	233.6749	89.721565	-1275.8669	305.01584	58.061749	-1313.9542	176.59308	68.998398	-1340.217	126.10606	49.23896	-1315.1726	123.84895	40.511494	-1351.3092	139.80067	20.587563	-1388.9126
248	1.235	115.05424	903.24506	-1062.7292	110.00977	903.79218	-1327.7023	301.40604	958.94501	-1174.03	304.88593	954.68591	-1228.9392	122.87664	693.53937	-1030.7194	140.06006	767.38422	-1017.1782	167.25761	629.62634	-1006.9081	220.50565	474.70654	-1023.7033	197.06129	464.75629	-1151.8209	258.25677	281.63034	-1004.2219	200.70387	357.11707	-1059.4062	216.29985	254.75565	-1032.048	272.99701	70.293289	-1027.162	239.28813	81.117905	-1107.9362	314.92453	61.891605	-1080.6481	191.1241	71.833054	-1047.311	133.97984	44.92527	-1072.9381	133.69218	39.205387	-1032.7444	149.21736	25.548489	-992.80267	155.59924	625.84644	-1379.8975	118.59325	751.65363	-1355.9773	102.8576	659.93665	-1333.9828	204.54907	490.45609	-1363.7349	203.09198	433.82581	-1243.6245	225.44991	296.16309	-1382.6295	185.94147	345.77695	-1327.6234	191.84422	264.66071	-1330.5697	269.03778	62.196316	-1355.7335	233.65744	89.715668	-1275.8706	305.02145	58.053665	-1313.962	176.60147	69.011261	-1340.2401	126.09072	49.245361	-1315.2028	123.85041	40.519226	-1351.3055	139.78712	20.639875	-1388.9662
249	1.24	114.98823	903.23401	-1062.7401	109.95911	903.75793	-1327.7151	301.65402	958.95209	-1173.5701	304.82846	954.67169	-1228.9344	122.81982	693.52789	-1030.7227	139.99873	767.35144	-1017.1727	167.20955	629.60449	-1006.9276	220.46481	474.69455	-1023.6993	197.01424	464.75793	-1151.8348	258.24091	281.62152	-1004.2244	200.72144	357.11539	-1059.4045	216.28378	254.74718	-1032.0502	272.71463	70.285301	-1027.3726	239.29196	81.099899	-1107.9508	314.92761	61.895874	-1080.6284	191.12035	71.815094	-1047.3313	134.01434	44.902802	-1072.9183	133.68326	39.200745	-1032.7476	149.22046	25.530834	-992.80182	155.54604	625.83173	-1379.9103	118.54823	751.65363	-1355.9873	102.81515	659.89941	-1333.9873	204.53058	490.45801	-1363.7242	202.97464	433.79422	-1243.6628	225.42104	296.18002	-1382.6525	185.93971	345.78726	-1327.6177	191.83875	264.64447	-1330.5544	269.02979	62.198841	-1355.7455	233.65948	89.710358	-1275.8663	305.01166	58.060665	-1313.97	176.60173	69.01194	-1340.2355	126.10356	49.23661	-1315.1672	123.85632	40.516342	-1351.3047	139.8479	20.518555	-1388.9521
250	1.245	114.93021	903.22009	-1062.7394	109.90589	903.74469	-1327.7156	301.61603	958.99805	-1173.5302	304.77841	954.68774	-1228.9293	122.76212	693.50153	-1030.7124	139.95804	767.33936	-1017.1733	167.15463	629.59534	-1006.947	220.42438	474.69562	-1023.7099	196.97447	464.75406	-1151.8379	258.2225	281.61475	-1004.2304	200.69424	357.12094	-1059.4111	216.26888	254.73622	-1032.0419	272.89572	70.13945	-1027.4811	239.49883	81.12162	-1107.7692	314.93118	61.879421	-1080.6395	191.14317	71.726463	-1047.316	133.99687	44.907825	-1072.9038	133.67169	39.167881	-1032.7551	149.22624	25.504354	-992.81897	155.49692	625.83954	-1379.9368	118.49042	751.63092	-1355.9878	102.77594	659.89154	-1333.998	204.4971	490.46045	-1363.7283	203.0732	433.78372	-1243.6467	225.40388	296.17969	-1382.6532	185.90977	345.78714	-1327.629	191.8232	264.63318	-1330.5614	269.02914	62.20639	-1355.7454	233.66072	89.701973	-1275.8778	305.01166	58.052105	-1313.964	176.60449	68.983299	-1340.1942	126.12405	49.220329	-1315.1495	123.85793	40.508423	-1351.2959	139.75688	20.678925	-1389.0024
